<svg width="201" height="42" viewBox="0 0 201 42" fill="none" xmlns="http://www.w3.org/2000/svg">
<path fill-rule="evenodd" clip-rule="evenodd" d="M22.6198 1.00441L13.4811 1C12.473 0.999514 11.5509 1.56764 11.0979 2.46825L6.6039 11.4032C3.72576 17.1257 1.2311 22.2326 1.05954 22.753C0.783033 23.5929 1.32193 23.6989 5.87192 23.6989C8.69085 23.6989 10.9965 23.8951 10.9965 24.135C10.9965 24.3744 9.18534 28.2053 6.9719 32.6474C3.06038 40.4977 2.36558 42.0218 4.43369 40.1831C17.2575 28.7809 28.9926 17.4159 29.7044 16.5998C30.546 15.634 30.2688 15.5918 23.099 15.5918C18.471 15.5918 16.5022 15.7098 16.1131 14.9826C15.7896 14.3779 16.5579 13.1892 17.7976 10.8627L17.9931 10.496L22.6198 1.00441ZM27.9652 8.56576H29.5072C40.674 8.56576 43.4283 9.06461 44.2888 11.2416C44.9004 12.7901 43.8273 14.0872 36.4523 20.7144C32.8106 23.9869 29.9075 26.8444 30.0011 27.0644C30.0946 27.2838 33.5984 30.5082 37.7884 34.2288L44.6482 40.3211C45.1361 40.7545 45.7661 40.9938 46.4187 40.9938H56.5254C57.1639 40.9938 57.469 40.2091 56.9982 39.7778C56.2683 39.1087 52.8856 36.0977 49.4806 33.0863C46.0757 30.0748 43.2897 27.4324 43.2897 27.2146C43.2897 26.9963 45.4473 24.8392 48.0846 22.4207C53.8611 17.1235 56.057 13.6683 56.0658 9.8618C56.0739 6.49036 54.1948 3.98907 50.3337 2.23255C47.8488 1.10158 47.1269 1.0212 31.6488 1.00903L27.9652 8.56576Z" fill="#FDFDFD"/>
<path d="M22.6198 1.00441L23.219 1.29649L23.686 0.338349L22.6201 0.337835L22.6198 1.00441ZM13.4811 1L13.4815 0.333423L13.4815 0.333423L13.4811 1ZM11.0979 2.46825L10.5024 2.16874L10.5024 2.16874L11.0979 2.46825ZM6.6039 11.4032L6.0084 11.1037L6.0084 11.1037L6.6039 11.4032ZM1.05954 22.753L0.426472 22.5444L0.426398 22.5446L1.05954 22.753ZM6.9719 32.6474L6.37529 32.3501L6.37529 32.3501L6.9719 32.6474ZM4.43369 40.1831L4.87659 40.6813L4.87661 40.6813L4.43369 40.1831ZM29.7044 16.5998L30.2067 17.038L30.2069 17.0377L29.7044 16.5998ZM16.1131 14.9826L16.7008 14.6681L16.7008 14.6681L16.1131 14.9826ZM17.7976 10.8627L17.2093 10.5492L17.2093 10.5493L17.7976 10.8627ZM17.9931 10.496L18.5813 10.8096L18.587 10.7989L18.5922 10.7881L17.9931 10.496ZM27.9652 8.56576L27.3661 8.27368L26.8988 9.23234H27.9652V8.56576ZM44.2888 11.2416L44.9088 10.9968L44.9087 10.9966L44.2888 11.2416ZM36.4523 20.7144L36.0068 20.2186L36.0068 20.2186L36.4523 20.7144ZM30.0011 27.0644L29.3876 27.3252L29.3878 27.3257L30.0011 27.0644ZM37.7884 34.2288L38.2311 33.7304L38.231 33.7304L37.7884 34.2288ZM44.6482 40.3211L45.0908 39.8227L45.0908 39.8227L44.6482 40.3211ZM56.9982 39.7778L56.5478 40.2692L56.548 40.2693L56.9982 39.7778ZM49.4806 33.0863L49.9222 32.5869L49.9222 32.5869L49.4806 33.0863ZM48.0846 22.4207L47.6341 21.9294L47.6341 21.9294L48.0846 22.4207ZM56.0658 9.8618L55.3992 9.8602L55.3992 9.86027L56.0658 9.8618ZM50.3337 2.23255L50.0576 2.83925L50.0577 2.8393L50.3337 2.23255ZM31.6488 1.00903L31.6493 0.342458L31.2323 0.34213L31.0496 0.716961L31.6488 1.00903ZM22.6201 0.337835L13.4815 0.333423L13.4808 1.66658L22.6195 1.67099L22.6201 0.337835ZM13.4815 0.333423C12.2213 0.332816 11.0686 1.04297 10.5024 2.16874L11.6934 2.76777C12.0331 2.09231 12.7247 1.66621 13.4808 1.66658L13.4815 0.333423ZM10.5024 2.16874L6.0084 11.1037L7.19939 11.7027L11.6934 2.76777L10.5024 2.16874ZM6.0084 11.1037C4.56844 13.9667 3.22406 16.6764 2.21782 18.7363C1.71482 19.766 1.29553 20.6349 0.990772 21.2801C0.698117 21.8996 0.485698 22.3647 0.426472 22.5444L1.69262 22.9617C1.69258 22.9618 1.69533 22.9537 1.70298 22.9342C1.71018 22.9158 1.71997 22.8918 1.73273 22.8615C1.75828 22.8009 1.79292 22.7218 1.83689 22.6241C1.9247 22.4289 2.04549 22.1686 2.1962 21.8495C2.49739 21.2119 2.91381 20.3488 3.41569 19.3215C4.4192 17.2672 5.76122 14.5622 7.1994 11.7027L6.0084 11.1037ZM0.426398 22.5446C0.352349 22.7695 0.231488 23.2089 0.495106 23.6169C0.739386 23.995 1.17794 24.1263 1.52724 24.195C2.27594 24.3421 3.62884 24.3654 5.87192 24.3654V23.0323C3.56501 23.0323 2.37347 23.0026 1.78434 22.8868C1.46474 22.824 1.53604 22.7714 1.61486 22.8934C1.71302 23.0453 1.62848 23.1565 1.69269 22.9615L0.426398 22.5446ZM5.87192 24.3654C7.26856 24.3654 8.52998 24.4141 9.43476 24.4911C9.89066 24.5299 10.2377 24.5744 10.4612 24.6192C10.5155 24.6301 10.558 24.6401 10.59 24.6488C10.6058 24.6531 10.6177 24.6568 10.6262 24.6595C10.6348 24.6624 10.6382 24.6638 10.6373 24.6634C10.6368 24.6632 10.6283 24.6597 10.6145 24.6521C10.6016 24.645 10.5753 24.6294 10.5436 24.603C10.4944 24.5621 10.3299 24.4073 10.3299 24.135H11.663C11.663 23.8327 11.4805 23.6483 11.3961 23.5781C11.3041 23.5016 11.2078 23.4567 11.1465 23.4313C11.0176 23.3781 10.8663 23.3407 10.7231 23.3121C10.4262 23.2525 10.0207 23.203 9.54781 23.1628C8.59506 23.0817 7.29421 23.0323 5.87192 23.0323V24.3654ZM10.3299 24.135C10.3299 24.0908 10.3347 24.0575 10.337 24.0434C10.3396 24.0268 10.3423 24.0153 10.3434 24.0108C10.3455 24.0022 10.3459 24.0022 10.3419 24.0144C10.3341 24.0382 10.3192 24.0796 10.2943 24.1425C10.2454 24.2665 10.1701 24.4437 10.0692 24.6719C9.8682 25.1265 9.5754 25.7608 9.2116 26.5303C8.48457 28.068 7.48053 30.132 6.37529 32.3501L7.56852 32.9447C8.67672 30.7206 9.68495 28.6482 10.4168 27.1001C10.7825 26.3267 11.0808 25.6807 11.2885 25.211C11.392 24.977 11.4756 24.7809 11.5343 24.6322C11.5633 24.5587 11.5894 24.4889 11.6093 24.4281C11.6191 24.398 11.6299 24.3624 11.639 24.325C11.6451 24.2997 11.663 24.2252 11.663 24.135H10.3299ZM6.37529 32.3501C4.43143 36.2514 3.25399 38.6438 2.83263 39.8246C2.72963 40.1132 2.64601 40.397 2.63129 40.6356C2.62438 40.7476 2.62457 40.9489 2.731 41.1469C2.86995 41.4053 3.12286 41.5404 3.37948 41.5513C3.57969 41.5598 3.74841 41.493 3.8463 41.4474C3.95757 41.3955 4.06688 41.3275 4.16878 41.2567C4.3733 41.1147 4.6123 40.9163 4.87659 40.6813L3.99079 39.685C3.73805 39.9097 3.54636 40.0658 3.40831 40.1617C3.33893 40.2099 3.29898 40.2316 3.28323 40.239C3.25412 40.2525 3.31808 40.2143 3.436 40.2193C3.61034 40.2267 3.80344 40.3262 3.90526 40.5157C3.97457 40.6446 3.96034 40.7433 3.96191 40.7177C3.96416 40.6814 3.98917 40.5503 4.08823 40.2727C4.47513 39.1885 5.60085 36.8937 7.56852 32.9447L6.37529 32.3501ZM4.87661 40.6813C11.2947 34.9746 17.4395 29.2781 22.0687 24.9063C26.6791 20.5522 29.8236 17.4772 30.2067 17.038L29.202 16.1617C28.8733 16.5385 25.7944 19.5541 21.1534 23.937C16.5311 28.3023 10.3964 33.9894 3.99077 39.685L4.87661 40.6813ZM30.2069 17.0377C30.3117 16.9175 30.4307 16.7766 30.5202 16.6346C30.5971 16.5126 30.7401 16.2578 30.6957 15.942C30.6425 15.5641 30.3704 15.3571 30.1683 15.258C29.9742 15.1628 29.7406 15.1104 29.5065 15.0747C28.5816 14.9336 26.6476 14.9253 23.099 14.9253V16.2584C26.7202 16.2584 28.5097 16.2712 29.3054 16.3926C29.3972 16.4066 29.465 16.4206 29.5137 16.4335C29.564 16.4467 29.5825 16.4556 29.5812 16.4549C29.581 16.4548 29.5392 16.435 29.491 16.3807C29.4361 16.3189 29.3901 16.2313 29.3755 16.1277C29.3508 15.9518 29.4334 15.8587 29.3923 15.9239C29.3638 15.969 29.3075 16.0407 29.2018 16.1619L30.2069 17.0377ZM23.099 14.9253C20.7613 14.9253 19.148 14.9544 18.053 14.8943C17.5049 14.8643 17.1405 14.8137 16.9053 14.7448C16.6658 14.6747 16.6749 14.6195 16.7008 14.6681L15.5254 15.297C15.7459 15.7092 16.147 15.912 16.5307 16.0243C16.9187 16.1378 17.4087 16.1941 17.98 16.2255C19.1236 16.2882 20.8087 16.2584 23.099 16.2584V14.9253ZM16.7008 14.6681C16.7204 14.7046 16.6895 14.6918 16.7195 14.5399C16.7499 14.3856 16.8279 14.1647 16.9743 13.8479C17.2704 13.207 17.7503 12.3689 18.3858 11.1762L17.2093 10.5493C16.6052 11.683 16.0811 12.6025 15.764 13.2887C15.6038 13.6355 15.4729 13.9706 15.4115 14.282C15.3497 14.5957 15.3441 14.9582 15.5254 15.297L16.7008 14.6681ZM18.3858 11.1763L18.5813 10.8096L17.4048 10.1824L17.2093 10.5492L18.3858 11.1763ZM18.5922 10.7881L23.219 1.29649L22.0206 0.712338L17.3939 10.2039L18.5922 10.7881ZM27.9652 9.23234H29.5072V7.89918H27.9652V9.23234ZM29.5072 9.23234C35.102 9.23234 38.5212 9.3589 40.6441 9.74322C41.7011 9.93458 42.3788 10.1807 42.8282 10.4672C43.2558 10.7397 43.5019 11.0642 43.6689 11.4866L44.9087 10.9966C44.6455 10.3305 44.2247 9.77631 43.5448 9.34297C42.8869 8.92364 42.0166 8.63687 40.8816 8.43139C38.6205 8.02205 35.0793 7.89918 29.5072 7.89918V9.23234ZM43.6688 11.4865C43.7779 11.7626 43.8005 11.9804 43.7198 12.2555C43.628 12.5687 43.3887 12.9997 42.8519 13.6486C41.7765 14.9485 39.707 16.8936 36.0068 20.2186L36.8979 21.2102C40.5727 17.908 42.7271 15.8909 43.8791 14.4984C44.456 13.801 44.8313 13.2032 44.9991 12.6305C45.1782 12.0198 45.1055 11.4949 44.9088 10.9968L43.6688 11.4865ZM36.0068 20.2186C34.1807 21.8596 32.5368 23.3992 31.3584 24.559C30.7704 25.1377 30.2917 25.6285 29.9627 25.9929C29.8002 26.173 29.6624 26.3351 29.5648 26.468C29.518 26.5317 29.4644 26.6101 29.4227 26.6931C29.4023 26.7336 29.3723 26.7993 29.3527 26.881C29.3367 26.9477 29.3026 27.1251 29.3876 27.3252L30.6145 26.8036C30.6937 26.9899 30.6595 27.1484 30.6493 27.1912C30.6355 27.2489 30.6169 27.2857 30.6135 27.2924C30.6058 27.3077 30.6086 27.299 30.6393 27.2572C30.6968 27.1789 30.7989 27.0561 30.9523 26.8862C31.2551 26.5508 31.7122 26.0814 32.2936 25.5091C33.4538 24.3672 35.0822 22.8418 36.8979 21.2102L36.0068 20.2186ZM29.3878 27.3257C29.4245 27.4117 29.4731 27.4757 29.4867 27.4939C29.5095 27.5243 29.5336 27.553 29.555 27.5776C29.5983 27.6274 29.6523 27.685 29.7122 27.7467C29.8332 27.8715 30.0007 28.0362 30.2062 28.2338C30.6184 28.63 31.2002 29.1736 31.9072 29.8242C33.3222 31.1261 35.2487 32.8651 37.3459 34.7272L38.231 33.7304C36.1381 31.872 34.2177 30.1384 32.8099 28.8431C32.1055 28.1951 31.5319 27.6589 31.13 27.2726C30.9284 27.0788 30.774 26.9266 30.6691 26.8185C30.6161 26.7638 30.5811 26.726 30.5608 26.7026C30.5503 26.6906 30.549 26.6883 30.5527 26.6934C30.5547 26.696 30.5613 26.7048 30.57 26.7184C30.5769 26.7293 30.5957 26.7595 30.6143 26.803L29.3878 27.3257ZM37.3458 34.7272L44.2055 40.8195L45.0908 39.8227L38.2311 33.7304L37.3458 34.7272ZM44.2055 40.8195C44.8155 41.3612 45.6029 41.6604 46.4187 41.6604V40.3273C45.9292 40.3273 45.4568 40.1477 45.0908 39.8227L44.2055 40.8195ZM46.4187 41.6604H56.5254V40.3273H46.4187V41.6604ZM56.5254 41.6604C57.7719 41.6604 58.3676 40.1283 57.4485 39.2863L56.548 40.2693C56.556 40.2766 56.5585 40.2811 56.559 40.2819C56.5596 40.2829 56.5597 40.2834 56.5599 40.2841C56.5603 40.2863 56.561 40.2944 56.5565 40.306C56.552 40.3175 56.546 40.3231 56.5442 40.3244C56.5436 40.3248 56.5432 40.3251 56.5421 40.3254C56.5412 40.3257 56.5363 40.3273 56.5254 40.3273V41.6604ZM57.4487 39.2864C56.7132 38.6123 53.3251 35.5966 49.9222 32.5869L49.039 33.5856C52.446 36.5989 55.8233 39.6051 56.5478 40.2692L57.4487 39.2864ZM49.9222 32.5869C48.2239 31.0849 46.6821 29.6767 45.567 28.6192C45.0086 28.0895 44.5621 27.6524 44.2576 27.3373C44.1042 27.1784 43.9949 27.0589 43.9273 26.9781C43.911 26.9587 43.8987 26.9433 43.8898 26.9317C43.8805 26.9196 43.8771 26.9145 43.8775 26.9152C43.8779 26.9158 43.8803 26.9194 43.884 26.9257C43.8875 26.9317 43.894 26.9432 43.9015 26.9594C43.9073 26.9717 43.9563 27.0712 43.9563 27.2146H42.6232C42.6232 27.3716 42.6777 27.4895 42.6942 27.5247C42.7187 27.5771 42.7459 27.621 42.7662 27.6515C42.8074 27.7137 42.8571 27.7765 42.9049 27.8337C43.003 27.9509 43.138 28.0971 43.2989 28.2636C43.6232 28.5993 44.086 29.0518 44.6496 29.5864C45.7788 30.6573 47.3324 32.0762 49.039 33.5856L49.9222 32.5869ZM43.9563 27.2146C43.9563 27.3296 43.9246 27.4115 43.9161 27.433C43.9039 27.4639 43.8929 27.4828 43.8914 27.4856C43.8881 27.4912 43.8941 27.4804 43.9188 27.4479C43.9663 27.3852 44.0465 27.2896 44.1637 27.1593C44.3956 26.9014 44.7382 26.5453 45.1695 26.1141C46.0301 25.2537 47.2216 24.1165 48.5352 22.9119L47.6341 21.9294C46.3104 23.1434 45.1044 24.294 44.2269 25.1713C43.7892 25.609 43.4275 25.9842 43.1725 26.2678C43.0462 26.4082 42.9372 26.5358 42.8564 26.6424C42.817 26.6944 42.774 26.7547 42.7379 26.8172C42.7198 26.8483 42.6964 26.892 42.6759 26.944C42.6591 26.9866 42.6232 27.0859 42.6232 27.2146H43.9563ZM48.5351 22.9119C54.3231 17.6043 56.7229 13.9767 56.7324 9.86333L55.3992 9.86027C55.3912 13.3599 53.3991 16.6428 47.6341 21.9294L48.5351 22.9119ZM56.7324 9.8634C56.7367 8.04367 56.2284 6.43187 55.1836 5.04119C54.146 3.66006 52.608 2.53489 50.6097 1.62581L50.0577 2.8393C51.9205 3.68674 53.2526 4.69047 54.1178 5.84198C54.9757 6.98393 55.4029 8.3085 55.3992 9.8602L56.7324 9.8634ZM50.6098 1.62586C49.9797 1.33905 49.4247 1.10163 48.706 0.919758C47.9925 0.739181 47.1413 0.619004 45.9084 0.536166C43.4548 0.371312 39.3768 0.348533 31.6493 0.342458L31.6483 1.67561C39.3989 1.68171 43.421 1.7052 45.819 1.86632C47.0119 1.94647 47.7745 2.05921 48.3789 2.21217C48.9782 2.36384 49.4453 2.56057 50.0576 2.83925L50.6098 1.62586ZM31.0496 0.716961L27.3661 8.27368L28.5644 8.85783L32.248 1.30111L31.0496 0.716961Z" fill="#FDFDFD"/>
<path d="M69.1289 11.1766H80.8393C85.7027 11.1766 87.7824 14.1842 87.7824 17.6398C87.7824 20.3274 86.5026 23.207 83.207 24.1349L88.2303 32.7737H84.0389L79.1116 24.4228H73.4803C73.1284 24.4228 72.9364 24.5828 72.9364 24.9668V32.7737H69.1609V24.2309C69.1609 21.7992 70.1848 20.8073 72.5524 20.8073H80.9673C83.111 20.8073 83.9749 19.3355 83.9749 17.7997C83.9749 16.2639 83.047 14.9521 80.9673 14.9521H69.1289V11.1766Z" fill="#FDFDFD"/>
<path d="M91.6386 15.88H101.781C106.005 15.88 107.668 18.2477 107.668 21.4472V29.3822C107.668 31.8139 107.029 32.7737 104.181 32.7737H96.278C92.2785 32.7737 90.6148 30.822 90.6148 27.6224C90.6148 24.5508 92.1506 22.7591 96.31 22.7591H104.341V21.4792C104.341 20.1674 103.605 19.1436 101.749 19.1436H91.6386V15.88ZM103.413 29.4782C104.085 29.4782 104.341 29.2222 104.341 28.6143V25.4467H96.374C94.5822 25.4467 93.9423 26.1826 93.9423 27.4304C93.9423 28.6783 94.6142 29.4782 96.31 29.4782H103.413Z" fill="#FDFDFD"/>
<path d="M112.464 15.88H115.855V32.7737H112.464V15.88ZM112.464 9.51285H115.887V12.4483H112.464V9.51285Z" fill="#FDFDFD"/>
<path d="M120.713 8.55298H124.104V32.7737H120.713V8.55298Z" fill="#FDFDFD"/>
<path d="M129.09 11.1766H140.8C145.663 11.1766 147.743 14.1842 147.743 17.6398C147.743 20.3274 146.463 23.207 143.168 24.1349L148.191 32.7737H144L139.072 24.4228H133.441C133.089 24.4228 132.897 24.5828 132.897 24.9668V32.7737H129.122V24.2309C129.122 21.7992 130.145 20.8073 132.513 20.8073H140.928C143.072 20.8073 143.936 19.3355 143.936 17.7997C143.936 16.2639 143.008 14.9521 140.928 14.9521H129.09V11.1766Z" fill="#FDFDFD"/>
<path d="M156.213 15.88H161.684C165.683 15.88 167.379 17.7997 167.379 21.0633C167.379 24.1669 165.811 25.9266 161.652 25.9266H153.621V27.1425C153.621 28.4863 154.357 29.4782 156.213 29.4782H166.547V32.7737H156.213C151.989 32.7737 150.326 30.406 150.326 27.2065V21.4472C150.326 18.2477 151.989 15.88 156.213 15.88ZM153.621 21.4792V23.271H161.556C163.38 23.271 164.052 22.5031 164.052 21.2553C164.052 19.9754 163.316 19.1436 161.652 19.1436H156.213C154.357 19.1436 153.621 20.1674 153.621 21.4792Z" fill="#FDFDFD"/>
<path d="M176.253 15.88H185.628V19.1436H176.285C174.717 19.1436 174.077 19.7835 174.077 21.0633C174.077 22.2471 174.589 22.8871 176.477 22.8871H180.444C185.116 22.8871 186.3 25.0308 186.3 27.6544C186.3 30.662 184.732 32.7737 180.764 32.7737H170.942V29.4782H180.764C182.332 29.4782 182.972 28.9342 182.972 27.6224C182.972 26.2786 182.268 25.7347 180.572 25.7347H176.573C171.902 25.7347 170.75 23.399 170.75 20.8073C170.75 17.7677 172.318 15.88 176.253 15.88Z" fill="#FDFDFD"/>
<path d="M188.601 15.88H190.905V11.8805H194.329V15.88H199V19.1436H194.329V27.1425C194.329 29.0302 195.001 29.6701 196.6 29.6701H198.936V32.7737H195.896C192.409 32.7737 190.905 31.3659 190.905 26.9505V19.1436H188.601V15.88Z" fill="#FDFDFD"/>
<path d="M69.1289 11.1766H80.8393C85.7027 11.1766 87.7824 14.1842 87.7824 17.6398C87.7824 20.3274 86.5026 23.207 83.207 24.1349L88.2303 32.7737H84.0389L79.1116 24.4228H73.4803C73.1284 24.4228 72.9364 24.5828 72.9364 24.9668V32.7737H69.1609V24.2309C69.1609 21.7992 70.1848 20.8073 72.5524 20.8073H80.9673C83.111 20.8073 83.9749 19.3355 83.9749 17.7997C83.9749 16.2639 83.047 14.9521 80.9673 14.9521H69.1289V11.1766Z" stroke="#FDFDFD" stroke-width="2.33302"/>
<path d="M91.6386 15.88H101.781C106.005 15.88 107.668 18.2477 107.668 21.4472V29.3822C107.668 31.8139 107.029 32.7737 104.181 32.7737H96.278C92.2785 32.7737 90.6148 30.822 90.6148 27.6224C90.6148 24.5508 92.1506 22.7591 96.31 22.7591H104.341V21.4792C104.341 20.1674 103.605 19.1436 101.749 19.1436H91.6386V15.88ZM103.413 29.4782C104.085 29.4782 104.341 29.2222 104.341 28.6143V25.4467H96.374C94.5822 25.4467 93.9423 26.1826 93.9423 27.4304C93.9423 28.6783 94.6142 29.4782 96.31 29.4782H103.413Z" stroke="#FDFDFD" stroke-width="2.33302"/>
<path d="M112.464 15.88H115.855V32.7737H112.464V15.88ZM112.464 9.51285H115.887V12.4483H112.464V9.51285Z" stroke="#FDFDFD" stroke-width="2.33302"/>
<path d="M120.713 8.55298H124.104V32.7737H120.713V8.55298Z" stroke="#FDFDFD" stroke-width="2.33302"/>
<path d="M129.09 11.1766H140.8C145.663 11.1766 147.743 14.1842 147.743 17.6398C147.743 20.3274 146.463 23.207 143.168 24.1349L148.191 32.7737H144L139.072 24.4228H133.441C133.089 24.4228 132.897 24.5828 132.897 24.9668V32.7737H129.122V24.2309C129.122 21.7992 130.145 20.8073 132.513 20.8073H140.928C143.072 20.8073 143.936 19.3355 143.936 17.7997C143.936 16.2639 143.008 14.9521 140.928 14.9521H129.09V11.1766Z" stroke="#FDFDFD" stroke-width="2.33302"/>
<path d="M156.213 15.88H161.684C165.683 15.88 167.379 17.7997 167.379 21.0633C167.379 24.1669 165.811 25.9266 161.652 25.9266H153.621V27.1425C153.621 28.4863 154.357 29.4782 156.213 29.4782H166.547V32.7737H156.213C151.989 32.7737 150.326 30.406 150.326 27.2065V21.4472C150.326 18.2477 151.989 15.88 156.213 15.88ZM153.621 21.4792V23.271H161.556C163.38 23.271 164.052 22.5031 164.052 21.2553C164.052 19.9754 163.316 19.1436 161.652 19.1436H156.213C154.357 19.1436 153.621 20.1674 153.621 21.4792Z" stroke="#FDFDFD" stroke-width="2.33302"/>
<path d="M176.253 15.88H185.628V19.1436H176.285C174.717 19.1436 174.077 19.7835 174.077 21.0633C174.077 22.2471 174.589 22.8871 176.477 22.8871H180.444C185.116 22.8871 186.3 25.0308 186.3 27.6544C186.3 30.662 184.732 32.7737 180.764 32.7737H170.942V29.4782H180.764C182.332 29.4782 182.972 28.9342 182.972 27.6224C182.972 26.2786 182.268 25.7347 180.572 25.7347H176.573C171.902 25.7347 170.75 23.399 170.75 20.8073C170.75 17.7677 172.318 15.88 176.253 15.88Z" stroke="#FDFDFD" stroke-width="2.33302"/>
<path d="M188.601 15.88H190.905V11.8805H194.329V15.88H199V19.1436H194.329V27.1425C194.329 29.0302 195.001 29.6701 196.6 29.6701H198.936V32.7737H195.896C192.409 32.7737 190.905 31.3659 190.905 26.9505V19.1436H188.601V15.88Z" stroke="#FDFDFD" stroke-width="2.33302"/>
<rect x="67.8921" y="10.1108" width="5.33262" height="23.3302" fill="#FDFDFD"/>
</svg>
